<svg width="51" height="51" viewBox="0 0 51 51" fill="none" xmlns="http://www.w3.org/2000/svg">
<g id="icone">
<path id="Ellipse 11 (Stroke)" fill-rule="evenodd" clip-rule="evenodd" d="M25.5 17C23.1528 17 21.25 18.9028 21.25 21.25C21.25 23.5972 23.1528 25.5 25.5 25.5C27.8472 25.5 29.75 23.5972 29.75 21.25C29.75 18.9028 27.8472 17 25.5 17ZM17 21.25C17 16.5556 20.8056 12.75 25.5 12.75C30.1944 12.75 34 16.5556 34 21.25C34 25.9444 30.1944 29.75 25.5 29.75C20.8056 29.75 17 25.9444 17 21.25Z" fill="#1E1E1E"/>
<path id="Ellipse 13 (Stroke)" fill-rule="evenodd" clip-rule="evenodd" d="M25.4998 36.125C20.0658 36.125 15.4207 39.5253 13.5863 44.3216L9.6167 42.8034C12.0595 36.4164 18.2467 31.875 25.4998 31.875C32.7529 31.875 38.94 36.4164 41.3828 42.8034L37.4133 44.3216C35.5788 39.5253 30.9337 36.125 25.4998 36.125Z" fill="#1E1E1E"/>
</g>
</svg>
